<svg xmlns="http://www.w3.org/2000/svg" version="1.1" xml:space="preserve" width="600px" height="177px" style="max-width: 100%; width: 100%; height: auto; shape-rendering:geometricPrecision; text-rendering:geometricPrecision; image-rendering:optimizeQuality; fill-rule:evenodd; clip-rule:evenodd" viewBox="0 0 600 177" xmlns:xlink="http://www.w3.org/1999/xlink">
 <g>
  <path    class="fil fil0" d="M0 1c2,0 4,-1 6,-1 2,0 4,0 6,0 1,0 3,0 5,0 3,0 4,1 6,1l0 137c0,4 1,8 1,10 1,3 2,5 4,6 1,1 2,2 4,2 2,1 4,1 6,1 1,0 3,0 5,0 2,0 3,-1 5,-1 1,6 2,12 2,18 -3,1 -5,1 -8,2 -4,0 -6,0 -9,0 -5,0 -9,-1 -13,-2 -4,-1 -7,-3 -10,-5 -3,-3 -6,-6 -7,-10 -2,-5 -3,-10 -3,-16l0 -142zm61 0c2,0 4,-1 6,-1 2,0 4,0 6,0 2,0 4,0 6,0 2,0 4,1 6,1l0 137c0,4 0,8 1,10 1,3 2,5 3,6 1,1 3,2 5,2 2,1 4,1 6,1 1,0 3,0 4,0 2,0 4,-1 5,-1 1,6 2,12 2,18 -2,1 -5,1 -8,2 -3,0 -6,0 -9,0 -4,0 -8,-1 -12,-2 -4,-1 -8,-3 -11,-5 -3,-3 -5,-6 -7,-10 -2,-5 -3,-10 -3,-16l0 -142zm70 70l-16 0c0,-1 0,-2 -1,-4 0,-2 0,-3 0,-5 0,-1 0,-3 0,-5 1,-1 1,-3 1,-4l38 0 0 121c-1,1 -3,1 -5,1 -2,0 -4,0 -6,0 -2,0 -4,0 -6,0 -2,0 -4,0 -5,-1l0 -103zm-6 -45c0,-2 0,-4 0,-6 0,-2 0,-4 0,-6 0,-2 0,-4 0,-6 0,-2 0,-4 0,-6 2,0 5,0 7,0 2,-1 4,-1 6,-1 2,0 4,0 6,1 3,0 5,0 7,0 0,2 0,4 0,6 0,2 0,4 0,6 0,2 0,4 0,6 0,2 0,4 0,6 -2,1 -4,1 -7,1 -2,0 -4,0 -6,0 -2,0 -4,0 -6,0 -2,0 -5,0 -7,-1zm56 27c2,0 4,-1 6,-1 2,0 4,0 6,0 1,0 3,0 6,0 2,0 4,1 6,1l0 66c0,8 0,14 2,19 1,5 3,9 6,12 3,3 6,5 10,6 5,1 9,2 15,2 8,0 15,-1 20,-3l0 -102c2,0 4,-1 6,-1 2,0 4,0 6,0 2,0 4,0 6,0 2,0 4,1 5,1l0 118c-5,1 -12,3 -19,4 -8,1 -16,2 -24,2 -8,0 -15,-1 -22,-2 -7,-1 -13,-4 -18,-8 -5,-4 -9,-10 -12,-17 -3,-8 -5,-17 -5,-30l0 -67zm128 0c2,0 4,-1 5,-1 2,0 4,0 5,0 2,0 4,0 5,0 2,0 4,1 5,1 1,2 1,5 2,9 0,4 0,7 0,10 4,-5 8,-10 13,-14 6,-4 13,-6 21,-6 2,0 3,0 4,0 2,0 3,1 4,1 0,1 0,3 0,4 1,2 1,3 1,5 0,2 0,4 -1,6 0,2 0,4 -1,6 -1,0 -2,0 -3,0 -2,0 -3,0 -4,0 -4,0 -8,0 -12,1 -4,2 -7,4 -10,7 -3,3 -6,7 -8,12 -1,5 -2,12 -2,20l0 60c-2,1 -4,1 -6,1 -2,0 -4,0 -6,0 -2,0 -3,0 -6,0 -2,0 -4,0 -6,-1l0 -121zm97 66c0,14 4,23 10,30 7,6 16,9 29,9 11,0 22,-2 32,-6 1,2 2,5 3,8 1,4 1,7 2,11 -6,2 -11,3 -18,5 -6,1 -13,1 -20,1 -11,0 -21,-1 -29,-4 -8,-4 -14,-8 -19,-13 -5,-6 -9,-13 -11,-20 -3,-8 -4,-16 -4,-26 0,-9 1,-17 3,-25 3,-8 6,-14 11,-20 5,-6 11,-10 18,-14 7,-3 15,-5 25,-5 9,0 16,2 22,4 7,3 12,7 16,12 4,5 8,11 10,18 2,7 3,14 3,22 0,2 0,5 0,7 0,3 0,5 -1,6l-82 0zm60 -17c0,-4 -1,-9 -2,-13 -1,-4 -3,-7 -5,-10 -2,-3 -5,-6 -9,-7 -3,-2 -8,-3 -12,-3 -10,0 -17,3 -23,9 -5,5 -8,14 -9,24l60 0z"/>
  <polygon class="fil fil1" points="533,127 600,177 533,177 "/>
 </g>
</svg>
